HIERARCHY
ROOT Hips
{
	OFFSET	0.00	0.00	0.00
	CHANNELS 6 Xposition Yposition Zposition Zrotation Xrotation Yrotation
	JOINT LeftUpLeg
	{
		OFFSET	 0.126116	-0.065224	 0.014019
		CHANNELS 3 Zrotation Xrotation Yrotation
		JOINT LeftLeg
		{
			OFFSET	 0.000000	 0.569914	 0.000000
			CHANNELS 3 Zrotation Xrotation Yrotation
			JOINT LeftFoot
			{
				OFFSET	 0.000000	 0.544423	 0.000000
				CHANNELS 3 Zrotation Xrotation Yrotation
				JOINT LeftToeBase
				{
					OFFSET	 0.000000	 0.207117	 0.000000
					CHANNELS 3 Zrotation Xrotation Yrotation
					End Site
					{
						OFFSET	 0.000000	 0.207117	 0.000000
					}
				}
			}
		}
	}
	JOINT RightUpLeg
	{
		OFFSET	-0.124023	-0.065224	 0.008373
		CHANNELS 3 Zrotation Xrotation Yrotation
		JOINT RightLeg
		{
			OFFSET	 0.000000	 0.570047	 0.000000
			CHANNELS 3 Zrotation Xrotation Yrotation
			JOINT RightFoot
			{
				OFFSET	 0.000000	 0.544354	 0.000000
				CHANNELS 3 Zrotation Xrotation Yrotation
				JOINT RightToeBase
				{
					OFFSET	 0.000000	 0.207540	 0.000000
					CHANNELS 3 Zrotation Xrotation Yrotation
					End Site
					{
						OFFSET	 0.000000	 0.207540	 0.000000
					}
				}
			}
		}
	}
	JOINT Spine
	{
		OFFSET	 0.000184	 0.117403	 0.007763
		CHANNELS 3 Zrotation Xrotation Yrotation
		JOINT Spine1
		{
			OFFSET	 0.000000	 0.137269	 0.000000
			CHANNELS 3 Zrotation Xrotation Yrotation
			JOINT Spine2
			{
				OFFSET	 0.000000	 0.156879	 0.000000
				CHANNELS 3 Zrotation Xrotation Yrotation
				JOINT LeftShoulder
				{
					OFFSET	 0.080501	 0.160143	 0.002496
					CHANNELS 3 Zrotation Xrotation Yrotation
					JOINT LeftArm
					{
						OFFSET	 0.000000	 0.164363	 0.000000
						CHANNELS 3 Zrotation Xrotation Yrotation
						JOINT LeftForeArm
						{
							OFFSET	 0.000000	 0.364576	 0.000000
							CHANNELS 3 Zrotation Xrotation Yrotation
							JOINT LeftHand
							{
								OFFSET	 0.000000	 0.360812	 0.000000
								CHANNELS 3 Zrotation Xrotation Yrotation
								JOINT LeftHandIndex1
								{
									OFFSET	 0.000000	 0.086006	 0.000000
									CHANNELS 3 Zrotation Xrotation Yrotation
									JOINT LeftHandIndex2
									{
										OFFSET	 0.000000	 0.047237	 0.000000
										CHANNELS 3 Zrotation Xrotation Yrotation
										JOINT LeftHandIndex3
										{
											OFFSET	-0.004284	 0.038165	 0.000551
											CHANNELS 3 Zrotation Xrotation Yrotation
											End Site
											{
												OFFSET	-0.004284	 0.038165	 0.000551
											}
										}
									}
								}
							}
						}
					}
				}
				JOINT Neck
				{
					OFFSET	 0.000000	 0.176489	 0.000000
					CHANNELS 3 Zrotation Xrotation Yrotation
					JOINT Head
					{
						OFFSET	 0.000000	 0.077941	 0.001747
						CHANNELS 3 Zrotation Xrotation Yrotation
						End Site
						{
							OFFSET	 0.000000	 0.077941	 0.001747
						}
					}
				}
				JOINT RightShoulder
				{
					OFFSET	-0.080363	 0.159706	-0.000306
					CHANNELS 3 Zrotation Xrotation Yrotation
					JOINT RightArm
					{
						OFFSET	 0.000000	 0.164196	 0.000000
						CHANNELS 3 Zrotation Xrotation Yrotation
						JOINT RightForeArm
						{
							OFFSET	 0.000000	 0.365611	 0.000000
							CHANNELS 3 Zrotation Xrotation Yrotation
							JOINT RightHand
							{
								OFFSET	 0.000000	 0.360648	 0.000000
								CHANNELS 3 Zrotation Xrotation Yrotation
								JOINT RightHandIndex1
								{
									OFFSET	 0.000000	 0.069977	 0.000000
									CHANNELS 3 Zrotation Xrotation Yrotation
									JOINT RightHandIndex2
									{
										OFFSET	 0.000000	 0.052305	 0.000000
										CHANNELS 3 Zrotation Xrotation Yrotation
										JOINT RightHandIndex3
										{
											OFFSET	 0.009002	 0.042196	 0.000782
											CHANNELS 3 Zrotation Xrotation Yrotation
											End Site
											{
												OFFSET	 0.009002	 0.042196	 0.000782
											}
										}
									}
								}
							}
						}
					}
				}
			}
		}
	}
}
MOTION
Frames:    8
Frame Time: 0.03333334
-0.003022	 1.270500	 0.049738	 0.072708	 3.212198	 178.791300	 176.263800	 3.655893	 11.125000	 3.232118	-15.938530	 2.911234	-2.801037	 69.821050	 6.050468	 1.331492	 28.938720	-2.729976	-176.633100	 5.860212	-7.763396	-4.634988	-14.927340	-6.341090	 0.860282	 66.611000	-1.336254	-1.305363	 28.580670	 2.603784	-0.846359	 3.013077	-8.975950	-1.997400	 4.371618	-5.319200	-1.605990	-4.193567	 11.446410	-113.447100	 5.124526	 92.999710	 4.261884	 51.849620	 39.875000	 20.733010	-1.048644	 0.096127	-18.160220	-11.025480	-46.242310	-6.580301	 5.266122	 0.000000	 0.000000	 0.000000	 0.000000	 0.000000	 0.000000	 0.000000	 3.833330	-0.651906	-0.251186	 3.240431	 0.768124	 4.500375	 114.205100	-4.424502	-88.485310	-47.386340	 15.877090	 45.518340	-94.359700	-2.245910	-2.353860	-35.082430	-13.689420	 0.922455	-0.359781	 10.582420	 0.744568	 11.977790	 9.317291	-2.096061	-8.359142	 3.150326	 0.104225
-0.002933	 1.270494	 0.049577	 0.108865	 3.213561	 178.740600	 176.302500	 3.671135	 11.070510	 3.243526	-15.991830	 2.892004	-2.872080	 69.864040	 6.121908	 1.331492	 28.938720	-2.729976	-176.598100	 5.828928	-7.791696	-4.616113	-14.869340	-6.373020	 0.778177	 66.584430	-1.245041	-1.305379	 28.580760	 2.599936	-0.830399	 2.778087	-8.834999	-2.009288	 5.089027	-5.247376	-1.542988	-5.176338	 11.240300	-113.447200	 5.116380	 92.997920	 3.381224	 51.838230	 40.696230	 21.086110	-1.063230	 0.067432	-17.763560	-11.935120	-45.950620	-6.580301	 5.266122	 0.000000	 0.000000	 0.000000	 0.000000	 0.000000	 0.000000	 0.000000	 3.846608	-0.682372	-0.255319	 3.295729	 0.676715	 4.426368	 114.202800	-4.408335	-88.496980	-46.356510	 16.290040	 43.408800	-96.096890	-2.237799	-2.386505	-37.706180	-14.411130	-1.667851	-0.359778	 10.582340	 0.744568	 11.977790	 9.317209	-2.096045	-8.359141	 3.150284	 0.104229
-0.002748	 1.270487	 0.049327	 0.150679	 3.216778	 178.672800	 176.353100	 3.684465	 10.997160	 3.256222	-16.051140	 2.865261	-2.970552	 69.916310	 6.219128	 1.331492	 28.938720	-2.729976	-176.552200	 5.787893	-7.829449	-4.593380	-14.799500	-6.417276	 0.662458	 66.553400	-1.119850	-1.305399	 28.580870	 2.594716	-0.820886	 2.548991	-8.617842	-2.021388	 5.780052	-5.126238	-1.485080	-6.127172	 10.907170	-113.447400	 5.105346	 92.995540	 2.490424	 51.810500	 41.542520	 21.615280	-1.085361	 0.029505	-17.390760	-12.795030	-45.361000	-6.580301	 5.266122	 0.000000	 0.000000	 0.000000	 0.000000	 0.000000	 0.000000	 0.000000	 3.864613	-0.723690	-0.260912	 3.367664	 0.601908	 4.308914	 114.199600	-4.386385	-88.512880	-45.044960	 16.789940	 40.208170	-99.020900	-2.220185	-2.452622	-40.506910	-15.029450	-5.730479	-0.359774	 10.582230	 0.744568	 11.977790	 9.317101	-2.096022	-8.359138	 3.150225	 0.104235
-0.002428	 1.270479	 0.048958	 0.197877	 3.222071	 178.587200	 176.417400	 3.694565	 10.903790	 3.269967	-16.115370	 2.830615	-3.100431	 69.978260	 6.344848	 1.331492	 28.938720	-2.729976	-176.493300	 5.736154	-7.876893	-4.567164	-14.718900	-6.475007	 0.508256	 66.519180	-0.957653	-1.305425	 28.581020	 2.588048	-0.819353	 2.320762	-8.320948	-2.040305	 6.453107	-4.953269	-1.429998	-7.061609	 10.438080	-113.447600	 5.091187	 92.992420	 1.574859	 51.767880	 42.428010	 22.365150	-1.117045	-0.017126	-17.069580	-13.613440	-44.454500	-6.580301	 5.266122	 0.000000	 0.000000	 0.000000	 0.000000	 0.000000	 0.000000	 0.000000	 3.887608	-0.776478	-0.268039	 3.457299	 0.541402	 4.145700	 114.195500	-4.358356	-88.533140	-43.573190	 17.287380	 35.569620	-103.365600	-2.183784	-2.558954	-43.157150	-15.283950	-11.744960	-0.359770	 10.582090	 0.744568	 11.977790	 9.316960	-2.095994	-8.359137	 3.150151	 0.104242
-0.001945	 1.270469	 0.048440	 0.249647	 3.229288	 178.481800	 176.496400	 3.700256	 10.788710	 3.284525	-16.183250	 2.787846	-3.263313	 70.050340	 6.499526	 1.331492	 28.938720	-2.729976	-176.420000	 5.672803	-7.935691	-4.537611	-14.627950	-6.547253	 0.310866	 66.482490	-0.755130	-1.305456	 28.581200	 2.579864	-0.828065	 2.093701	-7.936915	-2.071289	 7.102108	-4.721975	-1.377226	-7.974989	 9.820198	-113.447900	 5.073845	 92.988610	 0.654778	 51.723020	 43.338740	 23.342120	-1.158369	-0.072556	-16.810850	-14.378200	-43.199470	-6.580301	 5.266122	 0.000000	 0.000000	 0.000000	 0.000000	 0.000000	 0.000000	 0.000000	 3.915826	-0.841278	-0.276758	 3.565479	 0.495170	 3.933580	 114.190600	-4.323925	-88.558030	-42.354610	 17.429730	 29.168090	-108.997900	-2.118128	-2.696496	-45.127610	-14.723490	-20.136830	-0.359765	 10.581920	 0.744568	 11.977790	 9.316789	-2.095960	-8.359133	 3.150061	 0.104250
-0.001294	 1.270456	 0.047751	 0.304975	 3.238849	 178.357700	 176.589400	 3.699416	 10.652480	 3.299508	-16.253120	 2.736911	-3.460495	 70.132420	 6.684705	 1.331492	 28.938720	-2.729976	-176.332900	 5.597550	-8.004477	-4.505525	-14.529100	-6.634763	 0.069530	 66.445450	-0.511419	-1.305494	 28.581410	 2.570153	-0.849151	 1.871997	-7.457690	-2.113765	 7.714355	-4.424292	-1.329800	-8.850286	 9.043017	-113.448200	 5.053288	 92.984120	-0.211190	 51.708050	 44.229480	 24.475890	-1.205780	-0.137882	-16.579620	-15.064820	-41.562260	-6.580301	 5.266122	 0.000000	 0.000000	 0.000000	 0.000000	 0.000000	 0.000000	 0.000000	 3.949294	-0.918169	-0.287061	 3.692286	 0.463935	 3.670357	 114.184700	-4.283106	-88.587550	-42.338620	 16.644000	 20.977950	-115.152400	-2.022589	-2.831586	-45.563730	-12.855970	-30.915810	-0.359758	 10.581710	 0.744568	 11.977790	 9.316586	-2.095919	-8.359128	 3.149953	 0.104260
-0.000518	 1.270436	 0.046895	 0.362711	 3.250985	 178.215100	 176.693200	 3.690175	 10.495350	 3.314760	-16.324140	 2.678473	-3.686694	 70.224520	 6.897244	 1.331492	 28.938720	-2.729976	-176.235700	 5.512017	-8.083497	-4.472315	-14.426700	-6.737616	-0.210681	 66.410780	-0.228397	-1.305537	 28.581660	 2.558992	-0.884095	 1.661281	-6.873559	-2.157683	 8.278713	-4.049245	-1.295281	-9.665008	 8.103599	-113.448600	 5.029624	 92.978910	-0.943351	 51.772110	 45.037550	 25.608820	-1.251717	-0.215398	-16.277190	-15.643330	-39.518470	-6.580301	 5.266122	 0.000000	 0.000000	 0.000000	 0.000000	 0.000000	 0.000000	 0.000000	 3.987745	-1.006552	-0.298849	 3.836770	 0.448364	 3.356456	 114.178000	-4.236190	-88.621470	-44.854500	 14.516200	 11.684940	-120.431500	-1.920503	-2.912796	-43.496310	-9.667219	-43.106690	-0.359750	 10.581470	 0.744568	 11.977790	 9.316352	-2.095871	-8.359124	 3.149830	 0.104272
 0.000274	 1.270409	 0.045894	 0.422875	 3.265198	 178.055300	 176.802100	 3.671544	 10.318250	 3.330408	-16.397020	 2.613091	-3.933660	 70.327320	 7.133906	 1.331492	 28.938720	-2.729976	-176.135300	 5.418918	-8.172073	-4.438933	-14.323690	-6.855963	-0.519799	 66.380780	 0.091256	-1.305586	 28.581940	 2.546445	-0.932822	 1.467126	-6.169950	-2.178857	 8.790373	-3.581600	-1.287546	-10.399930	 7.001478	-113.449100	 5.003046	 92.973100	-1.466677	 51.974610	 45.705490	 26.507430	-1.285430	-0.310035	-15.727950	-16.087870	-37.041550	-6.580301	 5.266122	 0.000000	 0.000000	 0.000000	 0.000000	 0.000000	 0.000000	 0.000000	 4.030947	-1.105911	-0.312029	 3.998182	 0.448626	 2.993016	 114.170400	-4.183406	-88.659590	-50.247130	 11.137660	 2.795025	-123.533500	-1.849768	-2.901181	-39.021160	-6.033290	-54.389560	-0.359742	 10.581210	 0.744568	 11.977790	 9.316090	-2.095819	-8.359118	 3.149691	 0.104285
